<svg width="15" height="14" viewBox="0 0 15 14" fill="none" xmlns="http://www.w3.org/2000/svg">
<path fill-rule="evenodd" clip-rule="evenodd" d="M11.7158 3.50016C11.7158 3.85016 11.4832 4.0835 11.1342 4.0835H9.38948V5.25016H11.1342C11.3087 5.25016 11.4832 5.25016 11.5995 5.42516C11.7158 5.60016 11.7739 5.77516 11.7158 5.95016L11.1342 8.2835C11.0761 8.57516 10.8434 8.75016 10.5526 8.75016H9.38948V12.8335C9.38948 13.1835 9.15685 13.4168 8.8079 13.4168H6.48159C6.13264 13.4168 5.90001 13.1835 5.90001 12.8335V8.75016H4.73685C4.3879 8.75016 4.15527 8.51683 4.15527 8.16683V5.8335C4.15527 5.4835 4.3879 5.25016 4.73685 5.25016H5.90001V4.0835C5.90001 2.1585 7.47027 0.583496 9.38948 0.583496H11.1342C11.4832 0.583496 11.7158 0.816829 11.7158 1.16683V3.50016ZM10.3782 6.41683H8.8079C8.45895 6.41683 8.22632 6.1835 8.22632 5.8335V4.0835C8.22632 3.44183 8.74974 2.91683 9.38948 2.91683H10.5526V1.75016H9.38948C8.11001 1.75016 7.06316 2.80016 7.06316 4.0835V5.8335C7.06316 6.1835 6.83053 6.41683 6.48159 6.41683H5.31843V7.5835H6.48159C6.83053 7.5835 7.06316 7.81683 7.06316 8.16683V12.2502H8.22632V8.16683C8.22632 7.81683 8.45895 7.5835 8.8079 7.5835H10.0874L10.3782 6.41683Z" fill="black"/>
<mask id="mask0_142_10021" style="mask-type:luminance" maskUnits="userSpaceOnUse" x="4" y="0" width="8" height="14">
<path fill-rule="evenodd" clip-rule="evenodd" d="M11.7158 3.50016C11.7158 3.85016 11.4832 4.0835 11.1342 4.0835H9.38948V5.25016H11.1342C11.3087 5.25016 11.4832 5.25016 11.5995 5.42516C11.7158 5.60016 11.7739 5.77516 11.7158 5.95016L11.1342 8.2835C11.0761 8.57516 10.8434 8.75016 10.5526 8.75016H9.38948V12.8335C9.38948 13.1835 9.15685 13.4168 8.8079 13.4168H6.48159C6.13264 13.4168 5.90001 13.1835 5.90001 12.8335V8.75016H4.73685C4.3879 8.75016 4.15527 8.51683 4.15527 8.16683V5.8335C4.15527 5.4835 4.3879 5.25016 4.73685 5.25016H5.90001V4.0835C5.90001 2.1585 7.47027 0.583496 9.38948 0.583496H11.1342C11.4832 0.583496 11.7158 0.816829 11.7158 1.16683V3.50016ZM10.3782 6.41683H8.8079C8.45895 6.41683 8.22632 6.1835 8.22632 5.8335V4.0835C8.22632 3.44183 8.74974 2.91683 9.38948 2.91683H10.5526V1.75016H9.38948C8.11001 1.75016 7.06316 2.80016 7.06316 4.0835V5.8335C7.06316 6.1835 6.83053 6.41683 6.48159 6.41683H5.31843V7.5835H6.48159C6.83053 7.5835 7.06316 7.81683 7.06316 8.16683V12.2502H8.22632V8.16683C8.22632 7.81683 8.45895 7.5835 8.8079 7.5835H10.0874L10.3782 6.41683Z" fill="white"/>
</mask>
<g mask="url(#mask0_142_10021)">
<rect x="0.655273" width="14" height="14" fill="white"/>
</g>
</svg>
