<svg width="15" height="14" viewBox="0 0 15 14" fill="none" xmlns="http://www.w3.org/2000/svg">
<path d="M10.6185 10.1026C10.7376 10.4516 10.7972 10.8589 10.7972 11.2079V13.4184C10.7972 13.7675 10.559 14.0002 10.2017 14.0002C9.84446 14.0002 9.60628 13.7675 9.60628 13.4184V11.1497C9.66583 10.6843 9.4872 10.3353 9.18947 10.0444C9.01084 9.86992 8.9513 9.63723 9.07039 9.46271C9.12993 9.23002 9.36811 9.11368 9.54674 9.05551C11.2735 8.88099 12.8812 8.29927 12.8812 5.56516C12.8812 4.92526 12.643 4.28537 12.1667 3.76182C11.9881 3.5873 11.9881 3.35461 12.0476 3.18009C12.2262 2.71471 12.2262 2.24933 12.1071 1.78395C11.8094 1.84212 11.3331 2.01664 10.559 2.54019C10.4399 2.65654 10.2613 2.65654 10.0826 2.59837C8.83221 2.24933 7.46269 2.24933 6.21226 2.59837C6.03363 2.65654 5.855 2.65654 5.67636 2.54019C4.96183 2.01664 4.42593 1.84212 4.12821 1.78395C4.00912 2.24933 4.00912 2.71471 4.18776 3.18009C4.2473 3.41278 4.2473 3.64547 4.06867 3.76182C3.59231 4.28537 3.35414 4.92526 3.35414 5.56516C3.35414 8.29927 4.96183 8.88099 6.68862 9.05551C6.92679 9.05551 7.10542 9.23002 7.16497 9.46271C7.22451 9.6954 7.16497 9.92809 7.04588 10.0444C6.74816 10.3353 6.62907 10.6843 6.62907 11.0915V11.6151V11.6733V13.3603C6.62907 13.7093 6.39089 13.942 6.03363 13.942C5.67636 13.942 5.43819 13.7093 5.43819 13.3603V12.3713C3.65186 12.6622 2.87778 11.6733 2.34188 11.0334C2.10371 10.7425 1.92507 10.5098 1.6869 10.4516C1.38918 10.3935 1.151 10.0444 1.27009 9.75358C1.32963 9.46271 1.6869 9.23002 1.98462 9.34637C2.58006 9.52089 2.93733 9.92809 3.29459 10.3353C3.77095 10.9752 4.18776 11.4406 5.43819 11.2079V11.1497C5.43819 10.8007 5.49773 10.3935 5.61682 10.1026C3.94958 9.75358 2.16325 8.70647 2.16325 5.62333C2.16325 4.75075 2.46097 3.93633 2.99687 3.29644C2.75869 2.48202 2.81824 1.72578 3.1755 0.969538C3.23505 0.795021 3.35414 0.678676 3.53277 0.620504C3.77095 0.562331 4.54502 0.445986 6.15272 1.43492C7.46269 1.14406 8.83221 1.14406 10.0826 1.43492C11.6308 0.445986 12.4644 0.562331 12.7026 0.620504C12.8812 0.678676 13.0003 0.795021 13.0599 0.969538C13.3576 1.72578 13.4171 2.48202 13.2385 3.23826C13.7744 3.87816 14.0721 4.69257 14.0721 5.56516C14.0721 8.88099 12.0476 9.81175 10.6185 10.1026Z" fill="black"/>
<mask id="mask0_142_10012" style="mask-type:luminance" maskUnits="userSpaceOnUse" x="1" y="0" width="14" height="14">
<path d="M10.6185 10.1026C10.7376 10.4516 10.7972 10.8589 10.7972 11.2079V13.4184C10.7972 13.7675 10.559 14.0002 10.2017 14.0002C9.84446 14.0002 9.60628 13.7675 9.60628 13.4184V11.1497C9.66583 10.6843 9.4872 10.3353 9.18947 10.0444C9.01084 9.86992 8.9513 9.63723 9.07039 9.46271C9.12993 9.23002 9.36811 9.11368 9.54674 9.05551C11.2735 8.88099 12.8812 8.29927 12.8812 5.56516C12.8812 4.92526 12.643 4.28537 12.1667 3.76182C11.9881 3.5873 11.9881 3.35461 12.0476 3.18009C12.2262 2.71471 12.2262 2.24933 12.1071 1.78395C11.8094 1.84212 11.3331 2.01664 10.559 2.54019C10.4399 2.65654 10.2613 2.65654 10.0826 2.59837C8.83221 2.24933 7.46269 2.24933 6.21226 2.59837C6.03363 2.65654 5.855 2.65654 5.67636 2.54019C4.96183 2.01664 4.42593 1.84212 4.12821 1.78395C4.00912 2.24933 4.00912 2.71471 4.18776 3.18009C4.2473 3.41278 4.2473 3.64547 4.06867 3.76182C3.59231 4.28537 3.35414 4.92526 3.35414 5.56516C3.35414 8.29927 4.96183 8.88099 6.68862 9.05551C6.92679 9.05551 7.10542 9.23002 7.16497 9.46271C7.22451 9.6954 7.16497 9.92809 7.04588 10.0444C6.74816 10.3353 6.62907 10.6843 6.62907 11.0915V11.6151V11.6733V13.3603C6.62907 13.7093 6.39089 13.942 6.03363 13.942C5.67636 13.942 5.43819 13.7093 5.43819 13.3603V12.3713C3.65186 12.6622 2.87778 11.6733 2.34188 11.0334C2.10371 10.7425 1.92507 10.5098 1.6869 10.4516C1.38918 10.3935 1.151 10.0444 1.27009 9.75358C1.32963 9.46271 1.6869 9.23002 1.98462 9.34637C2.58006 9.52089 2.93733 9.92809 3.29459 10.3353C3.77095 10.9752 4.18776 11.4406 5.43819 11.2079V11.1497C5.43819 10.8007 5.49773 10.3935 5.61682 10.1026C3.94958 9.75358 2.16325 8.70647 2.16325 5.62333C2.16325 4.75075 2.46097 3.93633 2.99687 3.29644C2.75869 2.48202 2.81824 1.72578 3.1755 0.969538C3.23505 0.795021 3.35414 0.678676 3.53277 0.620504C3.77095 0.562331 4.54502 0.445986 6.15272 1.43492C7.46269 1.14406 8.83221 1.14406 10.0826 1.43492C11.6308 0.445986 12.4644 0.562331 12.7026 0.620504C12.8812 0.678676 13.0003 0.795021 13.0599 0.969538C13.3576 1.72578 13.4171 2.48202 13.2385 3.23826C13.7744 3.87816 14.0721 4.69257 14.0721 5.56516C14.0721 8.88099 12.0476 9.81175 10.6185 10.1026Z" fill="white"/>
</mask>
<g mask="url(#mask0_142_10012)">
<rect x="0.655273" width="14" height="14" fill="white"/>
</g>
</svg>
