<svg width="15" height="14" viewBox="0 0 15 14" fill="none" xmlns="http://www.w3.org/2000/svg">
<path fill-rule="evenodd" clip-rule="evenodd" d="M12.3221 1.75H2.98877C1.9971 1.75 1.23877 2.50833 1.23877 3.5V10.5C1.23877 11.4917 1.9971 12.25 2.98877 12.25H12.3221C13.3138 12.25 14.0721 11.4917 14.0721 10.5V3.5C14.0721 2.50833 13.3138 1.75 12.3221 1.75ZM2.98877 2.91667H12.3221C12.5554 2.91667 12.7304 3.03333 12.8471 3.26667L7.65544 6.88333L2.46377 3.26667C2.58044 3.03333 2.75544 2.91667 2.98877 2.91667ZM2.40544 10.5C2.40544 10.85 2.63877 11.0833 2.98877 11.0833H12.3221C12.6721 11.0833 12.9054 10.85 12.9054 10.5V4.60833L8.00544 8.05C7.88877 8.10833 7.7721 8.16667 7.65544 8.16667C7.53877 8.16667 7.4221 8.10833 7.30544 8.05L2.40544 4.60833V10.5Z" fill="black"/>
<mask id="mask0_142_10015" style="mask-type:luminance" maskUnits="userSpaceOnUse" x="1" y="1" width="14" height="12">
<path fill-rule="evenodd" clip-rule="evenodd" d="M12.3221 1.75H2.98877C1.9971 1.75 1.23877 2.50833 1.23877 3.5V10.5C1.23877 11.4917 1.9971 12.25 2.98877 12.25H12.3221C13.3138 12.25 14.0721 11.4917 14.0721 10.5V3.5C14.0721 2.50833 13.3138 1.75 12.3221 1.75ZM2.98877 2.91667H12.3221C12.5554 2.91667 12.7304 3.03333 12.8471 3.26667L7.65544 6.88333L2.46377 3.26667C2.58044 3.03333 2.75544 2.91667 2.98877 2.91667ZM2.40544 10.5C2.40544 10.85 2.63877 11.0833 2.98877 11.0833H12.3221C12.6721 11.0833 12.9054 10.85 12.9054 10.5V4.60833L8.00544 8.05C7.88877 8.10833 7.7721 8.16667 7.65544 8.16667C7.53877 8.16667 7.4221 8.10833 7.30544 8.05L2.40544 4.60833V10.5Z" fill="white"/>
</mask>
<g mask="url(#mask0_142_10015)">
<rect x="0.655273" width="14" height="14" fill="white"/>
</g>
</svg>
