<svg width="121" height="29" viewBox="0 0 121 29" fill="none" xmlns="http://www.w3.org/2000/svg">
<path d="M120.794 0H89.9741V0.837385H120.794V0Z" fill="#F50022"/>
<path d="M120.794 1.38672H89.9741V2.2241H120.794V1.38672Z" fill="#F50022"/>
<path d="M120.794 2.77393H89.9741V3.61131H120.794V2.77393Z" fill="#F50022"/>
<path d="M120.794 4.16138H89.9741V4.99876H120.794V4.16138Z" fill="#F50022"/>
<path d="M120.794 5.5481H89.9741V6.38548H120.794V5.5481Z" fill="#F50022"/>
<path d="M120.794 6.93481H89.9741V7.7722H120.794V6.93481Z" fill="#F50022"/>
<path d="M120.794 8.32178H89.9741V9.15916H120.794V8.32178Z" fill="#F50022"/>
<path d="M120.794 9.7085H85.9497V10.5459H120.794V9.7085Z" fill="#F50022"/>
<path d="M120.794 11.0957H85.9497V11.8916H120.794V11.0957Z" fill="#F50022"/>
<path d="M120.794 12.4827H85.9497V13.3201H120.794V12.4827Z" fill="#F50022"/>
<path d="M120.794 13.8694H85.9497V14.7068H120.794V13.8694Z" fill="#F50022"/>
<path d="M120.794 15.2566H85.9497V16.094H120.794V15.2566Z" fill="#F50022"/>
<path d="M120.794 16.7397H85.9497V17.4806H120.794V16.7397Z" fill="#F50022"/>
<path d="M120.794 18.0303H85.9497V18.8677H120.794V18.0303Z" fill="#F50022"/>
<path d="M120.794 19.417H68.1729V20.2544H120.794V19.417Z" fill="#F50022"/>
<path d="M120.794 20.8042H68.1729V21.6416H120.794V20.8042Z" fill="#F50022"/>
<path d="M120.794 22.1912H68.1729V23.0285H120.794V22.1912Z" fill="#F50022"/>
<path d="M120.794 23.5779H68.1729V24.4153H120.794V23.5779Z" fill="#F50022"/>
<path d="M120.794 24.9646H68.1729V25.802H120.794V24.9646Z" fill="#F50022"/>
<path d="M120.794 26.3521H68.1729V27.1894H120.794V26.3521Z" fill="#F50022"/>
<path d="M120.794 27.7388H68.1729V28.5762H120.794V27.7388Z" fill="#F50022"/>
<path d="M70.4553 7.96501H69.0269V0.54248H70.4047L73.4762 5.28336V0.54248H74.8996V7.96501H73.5526L70.4559 3.08102V7.96501H70.4553Z" fill="#F50022"/>
<path d="M80.1541 7.96501H76.144V0.54248H80.1541V1.84739H77.5826V3.54012H80.1541V4.82482H77.5826V6.66011H80.1541V7.96501Z" fill="#F50022"/>
<path d="M80.5933 0.54248H82.0779L83.3024 5.35464L84.6494 0.54248H85.6543L87.0013 5.35464L88.2208 0.54248H89.7054L87.5523 7.96501H86.3941L85.1493 3.33133L83.8945 7.96501H82.7463L80.5933 0.54248Z" fill="#F50022"/>
<path d="M90.3491 5.66067L91.6759 5.65562V5.76281C91.6759 6.07543 91.7573 6.32631 91.9208 6.51489C92.0843 6.70347 92.3016 6.79776 92.5741 6.79776C92.8667 6.79776 93.0976 6.7102 93.2678 6.53509C93.438 6.35998 93.5228 6.12314 93.5228 5.82399C93.5228 5.34468 93.179 5.00176 92.4921 4.7941C92.4033 4.76716 92.3342 4.74471 92.2831 4.72787C91.7045 4.54771 91.2765 4.29234 90.9973 3.96064C90.7182 3.6295 90.5789 3.21025 90.5789 2.704C90.5789 2.00749 90.7721 1.44849 91.158 1.02699C91.5439 0.605488 92.0584 0.39502 92.7016 0.39502C93.3037 0.39502 93.7834 0.583038 94.1401 0.958515C94.4974 1.33399 94.6962 1.85988 94.7372 2.53619H93.4211V2.47501C93.4211 2.23704 93.3498 2.04509 93.2066 1.89917C93.0639 1.75324 92.8768 1.68028 92.6454 1.68028C92.414 1.68028 92.2191 1.75493 92.0814 1.90422C91.9438 2.05407 91.8747 2.25781 91.8747 2.51598C91.8747 2.62487 91.8893 2.72084 91.918 2.8039C91.9466 2.88753 91.9921 2.96274 92.0534 3.03065C92.1927 3.18331 92.4921 3.32474 92.9515 3.45383C93.1554 3.50827 93.3122 3.5543 93.4211 3.59134C93.9312 3.76476 94.3081 4.01284 94.5513 4.33556C94.7945 4.65827 94.9159 5.07135 94.9159 5.57423C94.9159 6.33922 94.703 6.95323 94.2783 7.41738C93.8531 7.88153 93.2886 8.11333 92.5842 8.11333C91.9208 8.11333 91.3849 7.88939 90.9771 7.44039C90.5688 6.99195 90.3598 6.39871 90.3497 5.66123L90.3491 5.66067Z" fill="white"/>
<path d="M70.1032 16.4416L69.5269 17.9963H68.0215L70.9042 10.5737H72.1591L75.0008 17.9963H73.4448L72.8578 16.4416H70.1026H70.1032ZM72.3787 15.0654L71.5013 12.6745L70.6031 15.0654H72.3787Z" fill="#F50022"/>
<path d="M76.7712 17.9963H75.3169V10.5737H77.0824C77.6435 10.5737 78.0609 10.5934 78.335 10.6321C78.6085 10.6714 78.8428 10.7348 79.0366 10.8235C79.4584 11.0205 79.7797 11.2961 80.001 11.6491C80.2223 12.0027 80.3324 12.4169 80.3324 12.8928C80.3324 13.467 80.174 13.9541 79.8578 14.3532C79.5415 14.7528 79.1113 15.0065 78.567 15.1154L80.424 17.9957H78.6894L76.7712 14.5496V17.9957V17.9963ZM76.7712 14.1831H77.0925C77.6806 14.1831 78.1271 14.0771 78.4316 13.8643C78.736 13.6522 78.8883 13.3418 78.8883 12.9338C78.8883 12.5258 78.7608 12.2491 78.5057 12.0622C78.2507 11.8753 77.8525 11.7821 77.3121 11.7821H76.7712V14.1831Z" fill="#F50022"/>
<path d="M85.2718 17.9963H81.2617V10.5737H85.2718V11.8786H82.7003V13.5714H85.2718V14.8561H82.7003V16.6914H85.2718V17.9963Z" fill="#F50022"/>
<path d="M87.9148 17.9963H86.4863V10.5737H87.8642L90.9357 15.3146V10.5737H92.3591V17.9963H91.0121L87.9153 13.1123V17.9963H87.9148Z" fill="white"/>
<path d="M94.6803 16.4416L94.104 17.9963H92.5986L95.4813 10.5737H96.7362L99.5779 17.9963H98.022L97.435 16.4416H94.6803ZM96.9558 15.0654L96.0784 12.6745L95.1803 15.0654H96.9558Z" fill="white"/>
<path d="M68.4136 28.028V20.6055H69.8679V28.028H68.4136Z" fill="white"/>
<path d="M73.1594 28.028H71.731V20.6055H73.1088L76.1803 25.3463V20.6055H77.6037V28.028H76.2567L73.16 23.144V28.028H73.1594Z" fill="white"/>
<path d="M81.3736 28.028H78.8481V20.6055H81.3332C82.0067 20.6055 82.5459 20.6734 82.9503 20.8092C83.3553 20.945 83.7227 21.1729 84.0524 21.4922C84.4029 21.8318 84.6681 22.2432 84.8484 22.7259C85.0287 23.2085 85.1186 23.7507 85.1186 24.3518C85.1186 25.0248 84.9927 25.627 84.7411 26.159C84.4894 26.6911 84.1238 27.1283 83.6441 27.4718C83.3716 27.6722 83.0677 27.8147 82.7307 27.9C82.3942 27.9853 81.9415 28.0274 81.3736 28.0274V28.028ZM81.2821 26.7534C82.0881 26.7534 82.6818 26.5564 83.0627 26.1618C83.4435 25.7678 83.634 25.151 83.634 24.3114C83.634 23.5397 83.4256 22.9403 83.0088 22.512C82.592 22.0838 82.0095 21.87 81.2613 21.87H80.3125V26.754H81.2821V26.7534Z" fill="white"/>
<path d="M86.0166 28.028V20.6055H87.4709V28.028H86.0166Z" fill="white"/>
<path d="M89.7873 26.4733L89.211 28.028H87.7056L90.5883 20.6055H91.8431L94.6849 28.028H93.1289L92.5419 26.4733H89.7867H89.7873ZM92.0628 25.0972L91.1854 22.7062L90.2872 25.0972H92.0628Z" fill="white"/>
<path d="M20.5207 28.5707L7.04292 10.8936V28.5707H1V0.76416H6.64523L19.6854 17.8851V0.76416H25.7283V28.5713H20.5201L20.5207 28.5707Z" fill="#F50022"/>
<path d="M50.1398 28.5708L47.5953 22.3341H35.8273L33.2828 28.5708H27.041L38.9679 0.564941H44.6131L56.5406 28.5708H50.1398ZM41.7113 7.91395L38.0141 16.9316H45.4091L41.7119 7.91395H41.7113Z" fill="#F50022"/>
<path d="M57.4946 28.5704V0.200928H63.5375V28.5704H57.4946Z" fill="#F50022"/>
</svg>
