<svg width="20" height="20" viewBox="0 0 20 20" fill="none" xmlns="http://www.w3.org/2000/svg">
<path fill-rule="evenodd" clip-rule="evenodd" d="M14.0809 1.66669C15.4459 1.66669 16.7305 2.24424 17.694 3.23434C18.7378 4.22444 19.2998 5.62708 19.1392 7.02972C19.1392 8.43236 18.5772 9.835 17.6137 10.8251L10.5482 18.0858C10.3876 18.2508 10.227 18.3334 9.98612 18.3334C9.74525 18.3334 9.58467 18.2508 9.42409 18.0858L2.35853 10.8251C1.39504 9.835 0.833008 8.43236 0.833008 7.02972C0.833008 5.62708 1.39504 4.22444 2.43882 3.23434C4.44608 1.17164 7.73799 1.17164 9.74525 3.23434L10.0664 3.56438L10.3876 3.23434C11.3511 2.24424 12.716 1.66669 14.0809 1.66669ZM10.0664 16.3532L16.5699 9.66999C17.2926 8.92741 17.694 8.01982 17.694 7.02972C17.694 6.03962 17.2926 5.13203 16.6502 4.38946C15.9276 3.72939 15.0444 3.31685 14.0809 3.31685C13.0372 3.31685 12.154 3.72939 11.4314 4.38946L10.6284 5.29705C10.3073 5.62708 9.82554 5.62708 9.50438 5.29705L8.62118 4.38946C7.89857 3.64689 7.01537 3.31685 6.05189 3.31685C5.16869 3.31685 4.20521 3.64689 3.56288 4.38946C2.92056 5.13203 2.51911 6.03962 2.51911 7.02972C2.51911 8.01982 2.84027 8.92741 3.56288 9.66999L10.0664 16.3532Z" fill="black"/>
<mask id="mask0_638_9187" style="mask-type:luminance" maskUnits="userSpaceOnUse" x="0" y="1" width="20" height="18">
<path fill-rule="evenodd" clip-rule="evenodd" d="M14.0809 1.66669C15.4459 1.66669 16.7305 2.24424 17.694 3.23434C18.7378 4.22444 19.2998 5.62708 19.1392 7.02972C19.1392 8.43236 18.5772 9.835 17.6137 10.8251L10.5482 18.0858C10.3876 18.2508 10.227 18.3334 9.98612 18.3334C9.74525 18.3334 9.58467 18.2508 9.42409 18.0858L2.35853 10.8251C1.39504 9.835 0.833008 8.43236 0.833008 7.02972C0.833008 5.62708 1.39504 4.22444 2.43882 3.23434C4.44608 1.17164 7.73799 1.17164 9.74525 3.23434L10.0664 3.56438L10.3876 3.23434C11.3511 2.24424 12.716 1.66669 14.0809 1.66669ZM10.0664 16.3532L16.5699 9.66999C17.2926 8.92741 17.694 8.01982 17.694 7.02972C17.694 6.03962 17.2926 5.13203 16.6502 4.38946C15.9276 3.72939 15.0444 3.31685 14.0809 3.31685C13.0372 3.31685 12.154 3.72939 11.4314 4.38946L10.6284 5.29705C10.3073 5.62708 9.82554 5.62708 9.50438 5.29705L8.62118 4.38946C7.89857 3.64689 7.01537 3.31685 6.05189 3.31685C5.16869 3.31685 4.20521 3.64689 3.56288 4.38946C2.92056 5.13203 2.51911 6.03962 2.51911 7.02972C2.51911 8.01982 2.84027 8.92741 3.56288 9.66999L10.0664 16.3532Z" fill="white"/>
</mask>
<g mask="url(#mask0_638_9187)">
<rect x="-0.000488281" width="20" height="20" fill="#EA5455"/>
</g>
</svg>
