<svg width="15" height="14" viewBox="0 0 15 14" fill="none" xmlns="http://www.w3.org/2000/svg">
<path fill-rule="evenodd" clip-rule="evenodd" d="M13.767 1.27664C13.9416 1.15932 14.2327 1.15932 14.4073 1.27664C14.5819 1.39397 14.6983 1.62862 14.6401 1.86327C14.4655 2.68455 14.058 3.44716 13.476 4.09245V4.38576C13.476 7.6122 12.079 10.3107 9.576 11.7186C8.29541 12.4812 6.89841 12.8332 5.4432 12.8332C3.98799 12.8332 2.41636 12.4225 0.961149 11.6013C0.728315 11.4839 0.611898 11.1906 0.670107 10.956C0.728315 10.7213 1.01936 10.5453 1.25219 10.5453C2.24173 10.5453 3.23128 10.3693 4.1044 9.9587C1.95069 8.60947 1.36861 6.73226 1.3104 5.2657C1.25219 3.56448 1.83428 2.15658 1.89248 2.09792C1.95069 1.92193 2.12532 1.74595 2.35815 1.74595C2.59099 1.74595 2.76561 1.80461 2.88203 1.9806C3.87157 3.3885 5.38499 4.26844 7.07303 4.38576C7.07303 3.44716 7.48049 2.56722 8.2372 1.9806C9.45958 0.866007 11.264 0.924669 12.4282 1.9806C12.8939 1.80461 13.3595 1.56996 13.767 1.27664ZM12.2536 4.03379C12.2536 3.8578 12.3118 3.62315 12.4282 3.50582C12.4864 3.41783 12.5446 3.3445 12.6028 3.27117C12.661 3.19784 12.7193 3.12452 12.7775 3.03652C12.7193 3.06585 12.6465 3.08052 12.5737 3.09518C12.501 3.10985 12.4282 3.12452 12.37 3.15385C12.1954 3.21251 11.9625 3.15385 11.7879 2.97786C11.0894 2.15658 9.75062 2.03926 8.93571 2.80187C8.47004 3.21251 8.2372 3.79914 8.2372 4.38576V4.97239C8.2372 5.2657 7.94616 5.55901 7.65512 5.55901C5.73424 5.61767 3.92978 4.85506 2.64919 3.56448C2.29994 5.03105 2.18353 7.90551 5.55962 9.43074C5.73424 9.4894 5.90887 9.66539 5.90887 9.90004C5.90887 10.1347 5.85066 10.3107 5.61782 10.428C4.97753 10.8973 4.27903 11.1906 3.52232 11.4253C5.4432 11.8946 7.36408 11.6599 8.99391 10.7213C11.0894 9.4894 12.3118 7.20156 12.3118 4.38576C12.3118 4.26844 12.3118 4.15111 12.2536 4.03379Z" fill="black"/>
<mask id="mask0_142_10018" style="mask-type:luminance" maskUnits="userSpaceOnUse" x="0" y="1" width="15" height="12">
<path fill-rule="evenodd" clip-rule="evenodd" d="M13.767 1.27664C13.9416 1.15932 14.2327 1.15932 14.4073 1.27664C14.5819 1.39397 14.6983 1.62862 14.6401 1.86327C14.4655 2.68455 14.058 3.44716 13.476 4.09245V4.38576C13.476 7.6122 12.079 10.3107 9.576 11.7186C8.29541 12.4812 6.89841 12.8332 5.4432 12.8332C3.98799 12.8332 2.41636 12.4225 0.961149 11.6013C0.728315 11.4839 0.611898 11.1906 0.670107 10.956C0.728315 10.7213 1.01936 10.5453 1.25219 10.5453C2.24173 10.5453 3.23128 10.3693 4.1044 9.9587C1.95069 8.60947 1.36861 6.73226 1.3104 5.2657C1.25219 3.56448 1.83428 2.15658 1.89248 2.09792C1.95069 1.92193 2.12532 1.74595 2.35815 1.74595C2.59099 1.74595 2.76561 1.80461 2.88203 1.9806C3.87157 3.3885 5.38499 4.26844 7.07303 4.38576C7.07303 3.44716 7.48049 2.56722 8.2372 1.9806C9.45958 0.866007 11.264 0.924669 12.4282 1.9806C12.8939 1.80461 13.3595 1.56996 13.767 1.27664ZM12.2536 4.03379C12.2536 3.8578 12.3118 3.62315 12.4282 3.50582C12.4864 3.41783 12.5446 3.3445 12.6028 3.27117C12.661 3.19784 12.7193 3.12452 12.7775 3.03652C12.7193 3.06585 12.6465 3.08052 12.5737 3.09518C12.501 3.10985 12.4282 3.12452 12.37 3.15385C12.1954 3.21251 11.9625 3.15385 11.7879 2.97786C11.0894 2.15658 9.75062 2.03926 8.93571 2.80187C8.47004 3.21251 8.2372 3.79914 8.2372 4.38576V4.97239C8.2372 5.2657 7.94616 5.55901 7.65512 5.55901C5.73424 5.61767 3.92978 4.85506 2.64919 3.56448C2.29994 5.03105 2.18353 7.90551 5.55962 9.43074C5.73424 9.4894 5.90887 9.66539 5.90887 9.90004C5.90887 10.1347 5.85066 10.3107 5.61782 10.428C4.97753 10.8973 4.27903 11.1906 3.52232 11.4253C5.4432 11.8946 7.36408 11.6599 8.99391 10.7213C11.0894 9.4894 12.3118 7.20156 12.3118 4.38576C12.3118 4.26844 12.3118 4.15111 12.2536 4.03379Z" fill="white"/>
</mask>
<g mask="url(#mask0_142_10018)">
<rect x="0.655273" width="14" height="14" fill="white"/>
</g>
</svg>
